<svg xmlns="http://www.w3.org/2000/svg" style="display: none;">
  <!-- Game Icons -->
  
  <!-- Slap/Hand Icon -->
  <symbol id="icon-slap" viewBox="0 0 24 24">
    <path fill="currentColor" d="M23 11.5c0-.83-.67-1.5-1.5-1.5H20V8.5c0-.83-.67-1.5-1.5-1.5S17 7.67 17 8.5V10h-1V6.5c0-.83-.67-1.5-1.5-1.5S13 5.67 13 6.5V10h-1V4.5c0-.83-.67-1.5-1.5-1.5S9 3.67 9 4.5V10H8V5.5c0-.83-.67-1.5-1.5-1.5S5 4.67 5 5.5V16c0 2.76 2.24 5 5 5h6c2.76 0 5-2.24 5-5v-4.5zM21 16c0 1.66-1.34 3-3 3h-6c-1.66 0-3-1.34-3-3V5.5c0 .28.22.5.5.5s.5-.22.5-.5V10h2V4.5c0-.28.22-.5.5-.5s.5.22.5.5V10h2V6.5c0-.28.22-.5.5-.5s.5.22.5.5V10h2V8.5c0-.28.22-.5.5-.5s.5.22.5.5V11h1.5c.28 0 .5.22.5.5V16z"/>
    <circle cx="8" cy="3" r="1" fill="currentColor"/>
    <circle cx="11" cy="2" r="1" fill="currentColor"/>
    <circle cx="14" cy="2.5" r="1" fill="currentColor"/>
  </symbol>

  <!-- Score/Trophy Icon -->
  <symbol id="icon-trophy" viewBox="0 0 24 24">
    <path fill="currentColor" d="M7 4V2c0-1.1.9-2 2-2h6c1.1 0 2 .9 2 2v2h4c1.1 0 2 .9 2 2v3c0 2.76-2.24 5-5 5v1c0 1.1-.9 2-2 2h-6c-1.1 0-2-.9-2-2v-1c-2.76 0-5-2.24-5-5V6c0-1.1.9-2 2-2h4zm12 7c1.66 0 3-1.34 3-3V6h-3v5zM2 8v3c0 1.66 1.34 3 3 3V6H2v2zm7-6v14h6V2H9z"/>
  </symbol>

  <!-- Leaderboard Icon -->
  <symbol id="icon-leaderboard" viewBox="0 0 24 24">
    <path fill="currentColor" d="M7.5 21H2V9h5.5v12zm7.25-18h-5.5v18h5.5V3zM22 11h-5.5v10H22V11z"/>
    <circle cx="4.75" cy="7" r="1" fill="currentColor"/>
    <circle cx="12" cy="1" r="1" fill="currentColor"/>
    <circle cx="19.25" cy="9" r="1" fill="currentColor"/>
  </symbol>

  <!-- Power-up Icons -->
  
  <!-- Double Points -->
  <symbol id="icon-double-points" viewBox="0 0 24 24">
    <path fill="currentColor" d="M12 2l3.09 6.26L22 9.27l-5 4.87 1.18 6.88L12 17.77l-6.18 3.25L7 14.14 2 9.27l6.91-1.01L12 2z"/>
    <text x="12" y="16" text-anchor="middle" font-size="8" font-weight="bold" fill="white">2X</text>
  </symbol>

  <!-- Rapid Fire -->
  <symbol id="icon-rapid-fire" viewBox="0 0 24 24">
    <path fill="currentColor" d="M4 12l1.41 1.41L11 7.83V20h2V7.83l5.59 5.58L20 12l-8-8-8 8z"/>
    <path fill="currentColor" d="M6 4h2v2H6V4zm3 0h2v2H9V4zm3 0h2v2h-2V4zm3 0h2v2h-2V4z"/>
  </symbol>

  <!-- Shield -->
  <symbol id="icon-shield" viewBox="0 0 24 24">
    <path fill="currentColor" d="M12 1L3 5v6c0 5.55 3.84 10.74 9 12 5.16-1.26 9-6.45 9-12V5l-9-4z"/>
    <path fill="white" d="M9 11h2v6H9v-6zm4-4h2v10h-2V7z"/>
  </symbol>

  <!-- Magnet -->
  <symbol id="icon-magnet" viewBox="0 0 24 24">
    <path fill="currentColor" d="M3 7v4c0 4.42 3.58 8 8 8s8-3.58 8-8V7h-4v4c0 2.21-1.79 4-4 4s-4-1.79-4-4V7H3z"/>
    <rect x="3" y="3" width="4" height="8" rx="2" fill="currentColor"/>
    <rect x="17" y="3" width="4" height="8" rx="2" fill="currentColor"/>
  </symbol>

  <!-- Boost -->
  <symbol id="icon-boost" viewBox="0 0 24 24">
    <path fill="currentColor" d="M12 2l2.09 6.26L20 10l-5.91 1.74L12 18l-2.09-6.26L4 10l5.91-1.74L12 2z"/>
    <path fill="currentColor" d="M12 6l1.05 3.13L16 10l-2.95.87L12 14l-1.05-3.13L8 10l2.95-.87L12 6z"/>
  </symbol>

  <!-- UI Icons -->
  
  <!-- Mute/Sound -->
  <symbol id="icon-sound-on" viewBox="0 0 24 24">
    <path fill="currentColor" d="M3 9v6h4l5 5V4L7 9H3zm13.5 3c0-1.77-1.02-3.29-2.5-4.03v8.05c1.48-.73 2.5-2.25 2.5-4.02zM14 3.23v2.06c2.89.86 5 3.54 5 6.71s-2.11 5.85-5 6.71v2.06c4.01-.91 7-4.49 7-8.77s-2.99-7.86-7-8.77z"/>
  </symbol>

  <symbol id="icon-sound-off" viewBox="0 0 24 24">
    <path fill="currentColor" d="M16.5 12c0-1.77-1.02-3.29-2.5-4.03v2.21l2.45 2.45c.03-.2.05-.41.05-.63zm2.5 0c0 .94-.2 1.82-.54 2.64l1.51 1.51C20.63 14.91 21 13.5 21 12c0-4.28-2.99-7.86-7-8.77v2.06c2.89.86 5 3.54 5 6.71zM4.27 3L3 4.27 7.73 9H3v6h4l5 5v-6.73l4.25 4.25c-.67.52-1.42.93-2.25 1.18v2.06c1.38-.31 2.63-.95 3.69-1.81L19.73 21 21 19.73l-9-9L4.27 3zM12 4L9.91 6.09 12 8.18V4z"/>
  </symbol>

  <!-- Help -->
  <symbol id="icon-help" viewBox="0 0 24 24">
    <path fill="currentColor" d="M12 2C6.48 2 2 6.48 2 12s4.48 10 10 10 10-4.48 10-10S17.52 2 12 2zm1 17h-2v-2h2v2zm2.07-7.75l-.9.92C13.45 12.9 13 13.5 13 15h-2v-.5c0-1.1.45-2.1 1.17-2.83l1.24-1.26c.37-.36.59-.86.59-1.41 0-1.1-.9-2-2-2s-2 .9-2 2H8c0-2.21 1.79-4 4-4s4 1.79 4 4c0 .88-.36 1.68-.93 2.25z"/>
  </symbol>

  <!-- Refresh -->
  <symbol id="icon-refresh" viewBox="0 0 24 24">
    <path fill="currentColor" d="M17.65 6.35C16.2 4.9 14.21 4 12 4c-4.42 0-7.99 3.58-7.99 8s3.57 8 7.99 8c3.73 0 6.84-2.55 7.73-6h-2.08c-.82 2.33-3.04 4-5.65 4-3.31 0-6-2.69-6-6s2.69-6 6-6c1.66 0 3.14.69 4.22 1.78L13 11h7V4l-2.35 2.35z"/>
  </symbol>

  <!-- Share -->
  <symbol id="icon-share" viewBox="0 0 24 24">
    <path fill="currentColor" d="M18 16.08c-.76 0-1.44.3-1.96.77L8.91 12.7c.05-.23.09-.46.09-.7s-.04-.47-.09-.7l7.05-4.11c.54.5 1.25.81 2.04.81 1.66 0 3-1.34 3-3s-1.34-3-3-3-3 1.34-3 3c0 .24.04.47.09.7L8.04 9.81C7.5 9.31 6.79 9 6 9c-1.66 0-3 1.34-3 3s1.34 3 3 3c.79 0 1.5-.31 2.04-.81l7.12 4.16c-.05.21-.08.43-.08.65 0 1.61 1.31 2.92 2.92 2.92 1.61 0 2.92-1.31 2.92-2.92s-1.31-2.92-2.92-2.92z"/>
  </symbol>

  <!-- Close -->
  <symbol id="icon-close" viewBox="0 0 24 24">
    <path fill="currentColor" d="M19 6.41L17.59 5 12 10.59 6.41 5 5 6.41 10.59 12 5 17.59 6.41 19 12 13.41 17.59 19 19 17.59 13.41 12z"/>
  </symbol>

  <!-- Settings -->
  <symbol id="icon-settings" viewBox="0 0 24 24">
    <path fill="currentColor" d="M19.14 12.94c.04-.3.06-.61.06-.94 0-.32-.02-.64-.07-.94l2.03-1.58c.18-.14.23-.41.12-.61l-1.92-3.32c-.12-.22-.37-.29-.59-.22l-2.39.96c-.5-.38-1.03-.7-1.62-.94l-.36-2.54c-.04-.24-.24-.41-.48-.41h-3.84c-.24 0-.43.17-.47.41l-.36 2.54c-.59.24-1.13.57-1.62.94l-2.39-.96c-.22-.08-.47 0-.59.22L2.74 8.87c-.12.21-.08.47.12.61l2.03 1.58c-.05.3-.09.63-.09.94s.02.64.07.94l-2.03 1.58c-.18.14-.23.41-.12.61l1.92 3.32c.12.22.37.29.59.22l2.39-.96c.5.38 1.03.7 1.62.94l.36 2.54c.05.24.24.41.48.41h3.84c.24 0 .44-.17.47-.41l.36-2.54c.59-.24 1.13-.56 1.62-.94l2.39.96c.22.08.47 0 .59-.22l1.92-3.32c.12-.22.07-.47-.12-.61l-2.01-1.58zM12 15.6c-1.98 0-3.6-1.62-3.6-3.6s1.62-3.6 3.6-3.6 3.6 1.62 3.6 3.6-1.62 3.6-3.6 3.6z"/>
  </symbol>

  <!-- Game Elements -->
  
  <!-- Lightning/Energy -->
  <symbol id="icon-energy" viewBox="0 0 24 24">
    <path fill="currentColor" d="M11 21h-1l1-7H7.5c-.88 0-.33-.75-.31-.78C8.48 10.94 10.42 7.54 13.01 3h1l-1 7h3.51c.4 0 .62.19.4.66C15.43 14.24 12.24 19.05 11 21z"/>
  </symbol>

  <!-- Combo/Chain -->
  <symbol id="icon-combo" viewBox="0 0 24 24">
    <path fill="currentColor" d="M7 7h10v3l4-4-4-4v3H5v6h2V7zm10 10H7v-3l-4 4 4 4v-3h12v-6h-2v4z"/>
    <circle cx="12" cy="12" r="2" fill="currentColor"/>
  </symbol>

  <!-- Coins/Points -->
  <symbol id="icon-coins" viewBox="0 0 24 24">
    <circle cx="12" cy="12" r="8" fill="currentColor"/>
    <text x="12" y="16" text-anchor="middle" font-size="8" font-weight="bold" fill="white">$</text>
    <circle cx="16" cy="8" r="4" fill="currentColor" opacity="0.7"/>
    <circle cx="8" cy="16" r="4" fill="currentColor" opacity="0.5"/>
  </symbol>

  <!-- Daily Reward/Gift -->
  <symbol id="icon-gift" viewBox="0 0 24 24">
    <path fill="currentColor" d="M20 6h-2.18c.11-.31.18-.65.18-1a2.996 2.996 0 0 0-5.5-1.65l-.5.67-.5-.68C10.96 2.54 10.05 2 9 2 7.34 2 6 3.34 6 5c0 .35.07.69.18 1H4c-1.11 0-1.99.89-1.99 2L2 19c0 1.11.89 2 2 2h16c1.11 0 2-.89 2-2V8c0-1.11-.89-2-2-2zm-5-2c.55 0 1 .45 1 1s-.45 1-1 1-1-.45-1-1 .45-1 1-1zM9 4c.55 0 1 .45 1 1s-.45 1-1 1-1-.45-1-1 .45-1 1-1z"/>
    <path fill="currentColor" d="M20 22H4c-1.11 0-2-.89-2-2V8h20v12c0 1.11-.89 2-2 2z"/>
    <path fill="white" d="M12 8v12M8 10h8v2H8zm0 4h8v2H8z"/>
  </symbol>

  <!-- Achievement/Badge -->
  <symbol id="icon-achievement" viewBox="0 0 24 24">
    <path fill="currentColor" d="M12 7l-2 5h4l-2-5zm-1-4l2.5 6L12 15l-1.5-6L13 3h-2zm6.5 9L19 17l-1.5-1.5L19 14l-1.5-1.5zm-11 0L5 14l1.5 1.5L5 17l1.5 1.5zm5.5 8c-5.52 0-10-4.48-10-10S6.48 2 12 2s10 4.48 10 10-4.48 10-10 10z"/>
    <circle cx="12" cy="12" r="8" fill="none" stroke="currentColor" stroke-width="2"/>
  </symbol>

  <!-- Status Icons -->
  
  <!-- Online -->
  <symbol id="icon-online" viewBox="0 0 24 24">
    <circle cx="12" cy="12" r="10" fill="green"/>
    <path fill="white" d="m9 12 2 2 4-4" stroke="white" stroke-width="2" stroke-linecap="round" stroke-linejoin="round"/>
  </symbol>

  <!-- Offline -->
  <symbol id="icon-offline" viewBox="0 0 24 24">
    <circle cx="12" cy="12" r="10" fill="gray"/>
    <path fill="white" d="m15 9-6 6m0-6 6 6" stroke="white" stroke-width="2" stroke-linecap="round"/>
  </symbol>

  <!-- Loading/Spinner -->
  <symbol id="icon-loading" viewBox="0 0 24 24">
    <circle cx="12" cy="12" r="10" fill="none" stroke="currentColor" stroke-width="2" stroke-linecap="round" stroke-dasharray="31.416" stroke-dashoffset="31.416">
      <animate attributeName="stroke-dasharray" dur="2s" values="0 31.416;15.708 15.708;0 31.416;0 31.416" repeatCount="indefinite"/>
      <animate attributeName="stroke-dashoffset" dur="2s" values="0;-15.708;-31.416;-31.416" repeatCount="indefinite"/>
    </circle>
  </symbol>

  <!-- Warning -->
  <symbol id="icon-warning" viewBox="0 0 24 24">
    <path fill="currentColor" d="M1 21h22L12 2 1 21zm12-3h-2v-2h2v2zm0-4h-2v-4h2v4z"/>
  </symbol>

  <!-- Success/Check -->
  <symbol id="icon-success" viewBox="0 0 24 24">
    <path fill="currentColor" d="M12 2C6.48 2 2 6.48 2 12s4.48 10 10 10 10-4.48 10-10S17.52 2 12 2zm-2 15l-5-5 1.41-1.41L10 14.17l7.59-7.59L19 8l-9 9z"/>
  </symbol>

  <!-- Error -->
  <symbol id="icon-error" viewBox="0 0 24 24">
    <path fill="currentColor" d="M12 2C6.47 2 2 6.47 2 12s4.47 10 10 10 10-4.47 10-10S17.53 2 12 2zm5 13.59L15.59 17 12 13.41 8.41 17 7 15.59 10.59 12 7 8.41 8.41 7 12 10.59 15.59 7 17 8.41 13.41 12 17 15.59z"/>
  </symbol>

  <!-- Navigation Icons -->
  
  <!-- Menu -->
  <symbol id="icon-menu" viewBox="0 0 24 24">
    <path fill="currentColor" d="M3 18h18v-2H3v2zm0-5h18v-2H3v2zm0-7v2h18V6H3z"/>
  </symbol>

  <!-- Back/Arrow Left -->
  <symbol id="icon-arrow-left" viewBox="0 0 24 24">
    <path fill="currentColor" d="M20 11H7.83l5.59-5.59L12 4l-8 8 8 8 1.41-1.41L7.83 13H20v-2z"/>
  </symbol>

  <!-- Forward/Arrow Right -->
  <symbol id="icon-arrow-right" viewBox="0 0 24 24">
    <path fill="currentColor" d="M12 4l-1.41 1.41L16.17 11H4v2h12.17l-5.58 5.59L12 20l8-8z"/>
  </symbol>

  <!-- Up Arrow -->
  <symbol id="icon-arrow-up" viewBox="0 0 24 24">
    <path fill="currentColor" d="M7.41 15.41L12 10.83l4.59 4.58L18 14l-6-6-6 6z"/>
  </symbol>

  <!-- Down Arrow -->
  <symbol id="icon-arrow-down" viewBox="0 0 24 24">
    <path fill="currentColor" d="M7.41 8.59L12 13.17l4.59-4.58L18 10l-6 6-6-6z"/>
  </symbol>

  <!-- Special Effects Icons -->
  
  <!-- Sparkle -->
  <symbol id="icon-sparkle" viewBox="0 0 24 24">
    <path fill="currentColor" d="M12 1l2.5 7.5L22 11l-7.5 2.5L12 21l-2.5-7.5L2 11l7.5-2.5L12 1z"/>
    <circle cx="6" cy="6" r="1" fill="currentColor"/>
    <circle cx="18" cy="18" r="1" fill="currentColor"/>
    <circle cx="18" cy="6" r="1" fill="currentColor"/>
    <circle cx="6" cy="18" r="1" fill="currentColor"/>
  </symbol>

  <!-- Fire -->
  <symbol id="icon-fire" viewBox="0 0 24 24">
    <path fill="currentColor" d="M13.5.67s.74 2.65.74 4.8c0 2.06-1.35 3.73-3.41 3.73-2.07 0-3.63-1.67-3.63-3.73l.03-.36C5.21 7.51 4 10.62 4 14c0 4.42 3.58 8 8 8s8-3.58 8-8C20 8.61 17.41 3.8 13.5.67zM11.71 19c-1.78 0-3.22-1.4-3.22-3.14 0-1.62 1.05-2.76 2.81-3.12 1.77-.36 3.6-1.21 4.62-2.58.39 1.29.59 2.65.59 4.04 0 2.65-2.15 4.8-4.8 4.8z"/>
  </symbol>

  <!-- Star -->
  <symbol id="icon-star" viewBox="0 0 24 24">
    <path fill="currentColor" d="M12 2l3.09 6.26L22 9.27l-5 4.87 1.18 6.88L12 17.77l-6.18 3.25L7 14.14 2 9.27l6.91-1.01L12 2z"/>
  </symbol>

  <!-- Heart -->
  <symbol id="icon-heart" viewBox="0 0 24 24">
    <path fill="currentColor" d="M12 21.35l-1.45-1.32C5.4 15.36 2 12.28 2 8.5 2 5.42 4.42 3 7.5 3c1.74 0 3.41.81 4.5 2.09C13.09 3.81 14.76 3 16.5 3 19.58 3 22 5.42 22 8.5c0 3.78-3.4 6.86-8.55 11.54L12 21.35z"/>
  </symbol>

  <!-- Celebration/Confetti -->
  <symbol id="icon-celebration" viewBox="0 0 24 24">
    <path fill="currentColor" d="M2 12C2 6.48 6.48 2 12 2s10 4.48 10 10-4.48 10-10 10S2 17.52 2 12zm4.64-1.96l3.54 3.54c.78.78 2.05.78 2.83 0l7.07-7.07c.78-.78.78-2.05 0-2.83L16.54 3.6c-.78-.78-2.05-.78-2.83 0L6.64 10.67c-.78.78-.78 2.05 0 2.83z"/>
    <rect x="11" y="6" width="2" height="4" rx="1" fill="white" transform="rotate(45 12 8)"/>
    <rect x="11" y="10" width="2" height="4" rx="1" fill="white" transform="rotate(45 12 12)"/>
    <rect x="11" y="14" width="2" height="4" rx="1" fill="white" transform="rotate(45 12 16)"/>
  </symbol>

  <!-- Telegram Specific Icons -->
  
  <!-- Telegram -->
  <symbol id="icon-telegram" viewBox="0 0 24 24">
    <path fill="currentColor" d="M11.944 0A12 12 0 0 0 0 12a12 12 0 0 0 12 12 12 12 0 0 0 12-12A12 12 0 0 0 12 0a12 12 0 0 0-.056 0zm4.962 7.224c.1-.002.321.023.465.14a.506.506 0 0 1 .171.325c.016.093.036.306.02.472-.18 1.898-.962 6.502-1.36 8.627-.168.9-.499 1.201-.82 1.23-.696.065-1.225-.46-1.9-.902-1.056-.693-1.653-1.124-2.678-1.8-1.185-.78-.417-1.21.258-1.91.177-.184 3.247-2.977 3.307-3.23.007-.032.014-.15-.056-.212s-.174-.041-.249-.024c-.106.024-1.793 1.14-5.061 3.345-.48.33-.913.49-1.302.48-.428-.008-1.252-.241-1.865-.44-.752-.245-1.349-.374-1.297-.789.027-.216.325-.437.893-.663 3.498-1.524 5.83-2.529 6.998-3.014 3.332-1.386 4.025-1.627 4.476-1.635z"/>
  </symbol>

  <!-- PWA/Install -->
  <symbol id="icon-install" viewBox="0 0 24 24">
    <path fill="currentColor" d="M5 20h14v-2H5v2zM19 9h-4V3H9v6H5l7 7 7-7z"/>
  </symbol>

  <!-- Game Specific Icons -->
  
  <!-- Combo Multiplier -->
  <symbol id="icon-multiplier" viewBox="0 0 24 24">
    <circle cx="12" cy="12" r="10" fill="currentColor"/>
    <text x="8" y="16" font-size="8" font-weight="bold" fill="white">X</text>
    <text x="14" y="12" font-size="6" font-weight="bold" fill="white">2</text>
    <path fill="white" d="M16 8h2v2h-2V8zm0 4h2v2h-2v-2z"/>
  </symbol>

  <!-- Timer/Clock -->
  <symbol id="icon-timer" viewBox="0 0 24 24">
    <path fill="currentColor" d="M15 1H9v2h6V1zm-4 13h2V8h-2v6zm8.03-6.61l1.42-1.42c-.43-.51-.9-.99-1.41-1.41l-1.42 1.42A8.962 8.962 0 0 0 12 4c-4.97 0-9 4.03-9 9s4.02 9 9 9a8.994 8.994 0 0 0 7.03-14.61zM12 20c-3.87 0-7-3.13-7-7s3.13-7 7-7 7 3.13 7 7-3.13 7-7 7z"/>
  </symbol>

  <!-- Rank/Position -->
  <symbol id="icon-rank" viewBox="0 0 24 24">
    <path fill="currentColor" d="M5 16L3 5l5.5 5L12 4l3.5 6L21 5l-2 11H5zm2.7-2h8.6l.9-5.4-2.1 1.4L12 8l-3.1 2-2.1-1.4L7.7 14z"/>
    <circle cx="7" cy="19" r="2" fill="currentColor"/>
    <circle cx="12" cy="19" r="2" fill="currentColor"/>
    <circle cx="17" cy="19" r="2" fill="currentColor"/>
  </symbol>

  <!-- Streak/Chain -->
  <symbol id="icon-streak" viewBox="0 0 24 24">
    <path fill="currentColor" d="M4 6H2v14c0 1.1.9 2 2 2h14v-2H4V6zm16-4H8c-1.1 0-2 .9-2 2v12c0 1.1.9 2 2 2h12c1.1 0 2-.9 2-2V4c0-1.1-.9-2-2-2zm-1 9h-4v4h-2v-4H9V9h4V5h2v4h4v2z"/>
  </symbol>

  <!-- Progress/Level -->
  <symbol id="icon-progress" viewBox="0 0 24 24">
    <path fill="currentColor" d="M12 2l3.09 6.26L22 9.27l-5 4.87 1.18 6.88L12 17.77l-6.18 3.25L7 14.14 2 9.27l6.91-1.01L12 2z"/>
    <rect x="2" y="19" width="20" height="3" rx="1.5" fill="currentColor" opacity="0.3"/>
    <rect x="2" y="19" width="14" height="3" rx="1.5" fill="currentColor"/>
  </symbol>

</svg>
